<svg width="23" height="17" viewBox="0 0 23 17" fill="#56575E" xmlns="http://www.w3.org/2000/svg">
<path d="M10.1353 4.0515L13.7726 7.51558L17.4099 4.0515L18.51 5.20663L14.9291 8.61702L18.51 12.0274L17.4099 13.1825L13.7726 9.71845L10.1353 13.1825L9.03522 12.0274L12.6161 8.61702L9.03522 5.20663L10.1353 4.0515Z" fill="#56575E"/>
<path fill-rule="evenodd" clip-rule="evenodd" d="M6.87174 0.641113C6.57638 0.641113 6.29757 0.777474 6.11624 1.01061L0.657179 8.02941C0.388361 8.37503 0.388363 8.859 0.657179 9.20463L6.11624 16.2234C6.29757 16.4566 6.57638 16.5929 6.87174 16.5929H21.7884C22.317 16.5929 22.7455 16.1644 22.7455 15.6358V1.59822C22.7455 1.06962 22.317 0.641113 21.7884 0.641113H6.87174ZM2.22102 8.61702L7.18381 2.23629H21.1503V14.9977H7.18381L2.22102 8.61702Z" fill="#56575E"/>
</svg>
